<svg width="248" height="49" viewBox="0 0 248 49" fill="none" xmlns="http://www.w3.org/2000/svg">
<path d="M21.9839 17.8211L20.7485 19.7162L16.3153 26.4582L5.99561 10.7145H0V40.9629H6.46799V22.3037L14.4258 34.4759H18.1685L24.0915 25.4743L25.3269 23.5792L21.9839 17.8211Z" fill="#1B1657"/>
<path d="M85.751 10.7517C96.4704 10.7517 101.558 17.0929 101.558 25.8758C101.558 34.6588 96.4704 41 85.751 41H74.4502V10.7517H85.751ZM85.751 16.4369H80.9182V35.2783H85.751C91.7466 35.2783 94.9806 32.0713 94.9806 25.8758C94.9806 19.6804 91.7466 16.4369 85.751 16.4369Z" fill="#1B1657"/>
<path d="M116.244 10.7517C119.696 10.7517 123.148 11.5899 125.655 13.0112V18.8422C123.221 17.0929 119.95 16.2182 116.716 16.2547C113.555 16.2911 111.993 17.1658 111.993 18.9515C111.993 23.9808 127.872 22.1221 127.872 32.4357C127.872 38.9592 122.639 41 116.571 41C112.538 41 108.831 40.0525 105.852 38.3761V32.4357C109.158 34.6224 112.792 35.497 116.135 35.497C119.478 35.497 121.549 34.8046 121.549 32.7273C121.549 27.2972 105.67 29.338 105.67 19.0244C105.634 13.3756 110.539 10.7517 116.244 10.7517Z" fill="#1B1657"/>
<path d="M153.961 10.7507V16.436H139.172V22.8865H152.653V28.5353H139.172V35.2774H154.215V40.9626H132.704V10.7143H153.961V10.7507Z" fill="#1B1657"/>
<path d="M159.449 40.9629V10.7145H165.518L179.544 30.4671C179.471 29.228 179.398 27.6973 179.398 26.3125V10.7145H185.866V40.9629H179.798L165.772 21.2103C165.845 22.4494 165.917 23.9801 165.917 25.3649V40.9629H159.449Z" fill="#1B1657"/>
<path d="M55.3732 16.2911C55.4095 15.7445 55.2642 15.1614 54.9735 14.6512L52.7206 10.7517H50.395L53.2293 15.6716C53.3383 15.8538 53.3747 16.0725 53.3383 16.2911H55.3732Z" fill="#2C3144"/>
<path d="M70.1669 27.2243L63.0449 39.6151C62.5725 40.4534 61.6641 41 60.683 41H46.4388C45.4577 41 44.5493 40.4898 44.0769 39.6151L39.8255 32.2535L38.6627 30.2491L36.9549 27.2607C36.4825 26.4225 36.4825 25.3656 36.9549 24.5274L44.0769 12.1365C44.5493 11.2983 45.4577 10.7517 46.4388 10.7517H50.4359L53.2702 15.6716C53.3792 15.8538 53.4156 16.0725 53.3792 16.2911H48.074L42.5508 25.8758L45.058 30.2127L46.0755 31.9984L48.074 35.4606H59.0841L64.6074 25.8758L59.0841 16.2911H55.3778C55.4141 15.7445 55.2687 15.1614 54.978 14.6512L52.7252 10.7517H60.683C61.6641 10.7517 62.5725 11.2619 63.0449 12.1365L70.1669 24.5274C70.6757 25.3292 70.6757 26.3861 70.1669 27.2243Z" fill="#1B1657"/>
<path d="M54.9752 14.6504L52.7223 10.7509L47.3808 1.45775C46.872 0.546657 45.8909 0 44.8372 0H29.6483C28.5945 0 27.6497 0.546657 27.1047 1.45775L19.5466 14.6504C19.0379 15.5615 19.0379 16.6548 19.5466 17.5659L20.782 19.7161L24.125 25.5106L26.1963 29.0821V25.0369L25.3605 23.6156L22.0175 17.821L21.2908 16.5819C21.1454 16.2904 21.1454 15.9624 21.2908 15.6708L28.8852 2.47817C29.0305 2.18662 29.3576 2.04085 29.6846 2.04085H44.8735C45.2005 2.04085 45.4912 2.22307 45.6729 2.47817L50.4331 10.7509L53.2674 15.6708C53.3764 15.853 53.4127 16.0717 53.3764 16.2904C53.3764 16.3997 53.34 16.4726 53.2674 16.5819L45.6729 29.7746C45.5276 29.9932 45.3095 30.1754 45.0552 30.2119L46.0726 31.9976C46.6177 31.7425 47.0901 31.3416 47.4171 30.795L55.0115 17.6023C55.2296 17.2015 55.3749 16.7641 55.4112 16.2904C55.4112 15.7073 55.2659 15.1606 54.9752 14.6504ZM32.6279 30.2119V32.2163H39.8226L38.6599 30.2119H32.6279Z" fill="#F17900"/>
<path d="M32.6306 10.7517V40.9636H26.1626V22.3408L25.3269 23.6163L21.9839 17.8218L26.635 10.7517H32.6306Z" fill="#1B1657"/>
<path d="M176.34 40.24C175.727 40.24 175.2 40.1667 174.76 40.02C174.32 39.8867 173.993 39.6 173.78 39.16C173.58 38.72 173.547 38.06 173.68 37.18L174.6 30.66C174.707 29.9267 174.92 29.3733 175.24 29C175.56 28.6133 175.96 28.3533 176.44 28.22C176.933 28.0867 177.48 28.02 178.08 28.02C178.693 28.02 179.213 28.0933 179.64 28.24C180.08 28.3733 180.4 28.6267 180.6 29C180.8 29.3733 180.847 29.9267 180.74 30.66L180.44 32.82H178.9L179.2 30.62C179.28 30.14 179.267 29.7867 179.16 29.56C179.067 29.32 178.907 29.1667 178.68 29.1C178.467 29.02 178.213 28.98 177.92 28.98C177.627 28.98 177.36 29.02 177.12 29.1C176.88 29.1667 176.68 29.32 176.52 29.56C176.373 29.7867 176.26 30.14 176.18 30.62L175.2 37.66C175.133 38.14 175.147 38.5 175.24 38.74C175.333 38.9667 175.487 39.12 175.7 39.2C175.927 39.2667 176.187 39.3 176.48 39.3C176.773 39.3 177.04 39.2667 177.28 39.2C177.52 39.12 177.72 38.9667 177.88 38.74C178.04 38.5 178.153 38.14 178.22 37.66L178.48 35.74H180.02L179.82 37.18C179.7 38.0733 179.48 38.74 179.16 39.18C178.853 39.6067 178.46 39.8867 177.98 40.02C177.5 40.1667 176.953 40.24 176.34 40.24ZM180.508 40L184.328 30.1H186.388L187.388 40H185.708L185.488 37.96H182.968L182.108 40H180.508ZM183.088 37.16H185.528L185.128 31.46L183.088 37.16ZM188.811 40L190.231 30.1H191.731L190.451 38.94H193.511L193.371 40H188.811ZM194.65 40L196.07 30.1H201.15L201.01 31.16H197.49L197.03 34.26H199.87L199.73 35.46H196.89L196.37 38.94H199.87L199.73 40H194.65ZM201.33 40L202.75 30.1H204.07L206.31 36.98L207.35 30.1H208.71L207.29 40H205.95L203.69 33.46L202.69 40H201.33ZM209.631 40L211.051 30.1H214.671C215.178 30.1 215.598 30.1667 215.931 30.3C216.278 30.4333 216.524 30.64 216.671 30.92C216.818 31.2 216.858 31.5667 216.791 32.02L215.971 37.86C215.864 38.66 215.558 39.22 215.051 39.54C214.558 39.8467 213.891 40 213.051 40H209.631ZM211.311 39.18H212.971C213.344 39.18 213.664 39.1 213.931 38.94C214.211 38.7667 214.378 38.44 214.431 37.96L215.251 32.2C215.331 31.7467 215.264 31.4333 215.051 31.26C214.838 31.0733 214.531 30.98 214.131 30.98H212.491L211.311 39.18ZM216.816 40L220.636 30.1H222.696L223.696 40H222.016L221.796 37.96H219.276L218.416 40H216.816ZM219.396 37.16H221.836L221.436 31.46L219.396 37.16ZM225.119 40L226.539 30.1H230.339C231.006 30.1 231.526 30.24 231.899 30.52C232.273 30.8 232.413 31.2133 232.319 31.76L232.099 33.32C232.019 33.88 231.766 34.3267 231.339 34.66C230.913 34.9933 230.359 35.1733 229.679 35.2V35.22C230.119 35.2467 230.419 35.3667 230.579 35.58C230.753 35.7933 230.879 36.1333 230.959 36.6L231.639 40H229.979L229.459 36.7C229.433 36.5267 229.386 36.36 229.319 36.2C229.266 36.0267 229.179 35.8867 229.059 35.78C228.939 35.66 228.766 35.6 228.539 35.6H227.319L226.679 40H225.119ZM227.439 34.54H228.959C229.413 34.54 229.786 34.4533 230.079 34.28C230.373 34.0933 230.553 33.7667 230.619 33.3L230.799 32.02C230.853 31.6067 230.766 31.3267 230.539 31.18C230.326 31.02 230.073 30.94 229.779 30.94H227.979L227.439 34.54Z" fill="#F17900"/>
</svg>
